<svg xmlns="http://www.w3.org/2000/svg" viewBox="0 0 512 512"><defs><radialGradient id="gBody" cx="42%" cy="36%" r="72%"><stop offset="0%" stop-color="#F0C860"/><stop offset="60%" stop-color="#E3B347"/><stop offset="100%" stop-color="#CE9A2E"/></radialGradient><linearGradient id="gBg" x1="0" y1="0" x2="0" y2="1"><stop offset="0%" stop-color="#2E4C24"/><stop offset="100%" stop-color="#1E3418"/></linearGradient></defs><rect x="0" y="0" width="512" height="512" rx="104" fill="url(#gBg)"/><g><path d="M236.0 159.7 L256.0 118.0 L276.0 159.7 Z" fill="#D89F32"/><path d="M285.8 161.8 L321.1 131.8 L322.4 178.0 Z" fill="#D89F32"/><path d="M330.5 184.0 L374.9 170.9 L357.3 213.7 Z" fill="#D89F32"/><path d="M362.3 222.4 L408.2 228.6 L374.7 260.5 Z" fill="#D89F32"/><path d="M375.8 270.5 L415.1 294.7 L371.6 310.3 Z" fill="#D89F32"/><path d="M368.5 319.8 L394.6 358.0 L348.5 354.5 Z" fill="#D89F32"/><path d="M341.7 362.0 L350.0 407.4 L309.4 385.5 Z" fill="#D89F32"/><path d="M300.2 389.6 L289.3 434.5 L261.0 397.9 Z" fill="#D89F32"/><path d="M251.0 397.9 L222.7 434.5 L211.8 389.6 Z" fill="#D89F32"/><path d="M202.6 385.5 L162.0 407.4 L170.3 362.0 Z" fill="#D89F32"/><path d="M163.5 354.5 L117.4 358.0 L143.5 319.8 Z" fill="#D89F32"/><path d="M140.4 310.3 L96.9 294.7 L136.2 270.5 Z" fill="#D89F32"/><path d="M137.3 260.5 L103.8 228.6 L149.7 222.4 Z" fill="#D89F32"/><path d="M154.7 213.7 L137.1 170.9 L181.5 184.0 Z" fill="#D89F32"/><path d="M189.6 178.0 L190.9 131.8 L226.2 161.8 Z" fill="#D89F32"/></g><circle cx="256" cy="278" r="120" fill="url(#gBody)" stroke="#B4791F" stroke-width="4"/><path d="M256 166 Q157.4 278.0 246.9 388.0" fill="none" stroke="#A8701C" stroke-width="3.2" opacity="0.55"/><path d="M256 166 Q219.0 278.0 252.6 388.0" fill="none" stroke="#A8701C" stroke-width="3.2" opacity="0.55"/><path d="M256 166 Q303.0 278.0 260.3 388.0" fill="none" stroke="#A8701C" stroke-width="3.2" opacity="0.55"/><path d="M256 166 Q358.5 278.0 265.5 388.0" fill="none" stroke="#A8701C" stroke-width="3.2" opacity="0.55"/><ellipse cx="218" cy="236" rx="34" ry="24" fill="#F6DC8E" opacity="0.55"/><path d="M256 128 q4 -34 34 -46 q-6 34 -34 46 Z" fill="#4B7A3A" stroke="#33552A" stroke-width="3"/><line x1="256" y1="152" x2="256" y2="128" stroke="#6B4A24" stroke-width="5" stroke-linecap="round"/></svg>