<svg xmlns="http://www.w3.org/2000/svg" viewBox="0 0 512 512"><defs><linearGradient id="gCrown" x1="0" y1="0" x2="0" y2="1"><stop offset="0" stop-color="#88AC67"/><stop offset="1" stop-color="#587840"/></linearGradient><linearGradient id="gTrunk" x1="0" y1="0" x2="1" y2="0"><stop offset="0" stop-color="#8A5E36"/><stop offset="1" stop-color="#6B4526"/></linearGradient><radialGradient id="gFruit" cx="40%" cy="34%" r="72%"><stop offset="0" stop-color="#EEC468"/><stop offset="100%" stop-color="#CE9A2E"/></radialGradient><linearGradient id="gBg" x1="0" y1="0" x2="0" y2="1"><stop offset="0" stop-color="#F3ECD9"/><stop offset="1" stop-color="#E7DCC2"/></linearGradient></defs><rect width="512" height="512" rx="104" fill="url(#gBg)"/><line x1="150" y1="446" x2="362" y2="446" stroke="#6E4A24" stroke-width="6" stroke-linecap="round"/><g stroke="#6E4A24" stroke-width="4" fill="none" stroke-linecap="round" opacity="0.85"><path d="M256 446 q-30 14 -54 34"/><path d="M256 446 q30 14 54 34"/><path d="M256 446 v30"/></g><path d="M238 448 L244 300 Q256 282 268 300 L274 448 Z" fill="url(#gTrunk)" stroke="#573A20" stroke-width="4"/><g stroke="#6B4A28" stroke-width="11" fill="none" stroke-linecap="round"><path d="M252 322 Q214 296 196 262"/><path d="M260 318 Q298 296 316 264"/><path d="M256 300 V226"/></g><path d="M 256.0 52.0 Q 280.0 65.8 277.3 93.3 Q 301.3 107.1 298.7 134.7 Q 322.7 148.5 320.0 176.0 Q 344.0 189.8 341.3 217.3 Q 365.3 231.1 362.7 258.7 Q 386.7 272.5 384.0 300.0 Q 358.4 315.0 332.8 300.0 Q 307.2 315.0 281.6 300.0 Q 256.0 315.0 230.4 300.0 Q 204.8 315.0 179.2 300.0 Q 153.6 315.0 128.0 300.0 Q 125.3 272.5 149.3 258.7 Q 146.7 231.1 170.7 217.3 Q 168.0 189.8 192.0 176.0 Q 189.3 148.5 213.3 134.7 Q 210.7 107.1 234.7 93.3 Q 232.0 65.8 256.0 52.0 Z" fill="#4E6E3A"/><path d="M 256.0 60.0 Q 279.1 72.6 275.3 98.7 Q 298.4 111.3 294.7 137.3 Q 317.7 150.0 314.0 176.0 Q 337.1 188.6 333.3 214.7 Q 356.4 227.3 352.7 253.3 Q 375.7 266.0 372.0 292.0 Q 348.8 307.0 325.6 292.0 Q 302.4 307.0 279.2 292.0 Q 256.0 307.0 232.8 292.0 Q 209.6 307.0 186.4 292.0 Q 163.2 307.0 140.0 292.0 Q 136.3 266.0 159.3 253.3 Q 155.6 227.3 178.7 214.7 Q 174.9 188.6 198.0 176.0 Q 194.3 150.0 217.3 137.3 Q 213.6 111.3 236.7 98.7 Q 232.9 72.6 256.0 60.0 Z" fill="url(#gCrown)" stroke="#33502A" stroke-width="6.5" stroke-linejoin="round"/><clipPath id="cc"><path d="M 256.0 60.0 Q 279.1 72.6 275.3 98.7 Q 298.4 111.3 294.7 137.3 Q 317.7 150.0 314.0 176.0 Q 337.1 188.6 333.3 214.7 Q 356.4 227.3 352.7 253.3 Q 375.7 266.0 372.0 292.0 Q 348.8 307.0 325.6 292.0 Q 302.4 307.0 279.2 292.0 Q 256.0 307.0 232.8 292.0 Q 209.6 307.0 186.4 292.0 Q 163.2 307.0 140.0 292.0 Q 136.3 266.0 159.3 253.3 Q 155.6 227.3 178.7 214.7 Q 174.9 188.6 198.0 176.0 Q 194.3 150.0 217.3 137.3 Q 213.6 111.3 236.7 98.7 Q 232.9 72.6 256.0 60.0 Z"/></clipPath><g clip-path="url(#cc)"><path d="M 256.0 84.0 Q 276.2 99.6 276.8 125.2 Q 297.0 140.8 297.6 166.4 Q 317.8 182.0 318.4 207.6 Q 338.6 223.2 339.2 248.8 Q 359.4 264.4 360.0 290.0 Q 334.5 301.0 309.0 290.0 Q 283.5 301.0 258.0 290.0 Q 246.8 269.5 257.6 248.8 Q 246.4 228.3 257.2 207.6 Q 246.0 187.1 256.8 166.4 Q 245.6 145.9 256.4 125.2 Q 245.2 104.7 256.0 84.0 Z" fill="#4A6836" opacity="0.5"/><circle cx="256" cy="120" r="16" fill="#456638" opacity="0.32"/><circle cx="214" cy="190" r="17" fill="#456638" opacity="0.32"/><circle cx="300" cy="196" r="18" fill="#456638" opacity="0.32"/><circle cx="256" cy="232" r="18" fill="#456638" opacity="0.32"/><circle cx="190" cy="250" r="14" fill="#456638" opacity="0.32"/><circle cx="322" cy="250" r="14" fill="#456638" opacity="0.32"/><path d="M 232.0 96.0 Q 250.1 106.2 249.0 127.0 Q 267.1 137.2 266.0 158.0 Q 284.1 168.2 283.0 189.0 Q 301.1 199.2 300.0 220.0 Q 279.3 231.0 258.7 220.0 Q 238.0 231.0 217.3 220.0 Q 196.7 231.0 176.0 220.0 Q 175.3 194.8 194.7 178.7 Q 194.0 153.5 213.3 137.3 Q 212.6 112.1 232.0 96.0 Z" fill="#95B473" opacity="0.7"/><path d="M256 288 L226 90" stroke="#3C5A2B" stroke-width="2.4" opacity="0.25" fill="none"/><path d="M256 288 L256 90" stroke="#3C5A2B" stroke-width="2.4" opacity="0.25" fill="none"/><path d="M256 288 L286 90" stroke="#3C5A2B" stroke-width="2.4" opacity="0.25" fill="none"/></g><g stroke="#6B4A28" stroke-width="4"><line x1="212" y1="304" x2="196" y2="332"/><line x1="300" y1="308" x2="320" y2="340"/><line x1="256" y1="360" x2="256" y2="392"/></g><g><path d="M190.1 328.7 L196.0 317.1 L201.9 328.7Z" fill="#D8A036"/><path d="M204.7 329.5 L216.0 322.9 L214.6 335.9Z" fill="#D8A036"/><path d="M216.6 338.1 L229.6 338.7 L221.5 348.8Z" fill="#D8A036"/><path d="M221.9 351.8 L232.5 359.3 L220.2 363.4Z" fill="#D8A036"/><path d="M219.0 366.1 L223.9 378.2 L211.3 375.0Z" fill="#D8A036"/><path d="M208.8 376.6 L206.4 389.4 L197.5 380.0Z" fill="#D8A036"/><path d="M194.5 380.0 L185.6 389.4 L183.2 376.6Z" fill="#D8A036"/><path d="M180.7 375.0 L168.1 378.2 L173.0 366.1Z" fill="#D8A036"/><path d="M171.8 363.4 L159.5 359.3 L170.1 351.8Z" fill="#D8A036"/><path d="M170.5 348.8 L162.4 338.7 L175.4 338.1Z" fill="#D8A036"/><path d="M177.4 335.9 L176.0 322.9 L187.3 329.5Z" fill="#D8A036"/><circle cx="196" cy="354" r="26" fill="url(#gFruit)" stroke="#A8701C" stroke-width="3"/><path d="M196 331 Q182.6 354.0 193.4 376.0" fill="none" stroke="#9A6418" stroke-width="2" opacity="0.5"/><path d="M196 331 Q196.0 354.0 196.0 376.0" fill="none" stroke="#9A6418" stroke-width="2" opacity="0.5"/><path d="M196 331 Q209.4 354.0 198.6 376.0" fill="none" stroke="#9A6418" stroke-width="2" opacity="0.5"/><ellipse cx="187.7" cy="345.2" rx="7.8" ry="5.7" fill="#F1CE72" opacity="0.6"/></g><g><path d="M315.7 334.7 L322.0 322.2 L328.3 334.7Z" fill="#D8A036"/><path d="M331.4 335.6 L343.5 328.6 L342.1 342.5Z" fill="#D8A036"/><path d="M344.2 344.9 L358.2 345.5 L349.4 356.4Z" fill="#D8A036"/><path d="M349.9 359.6 L361.4 367.7 L348.1 372.2Z" fill="#D8A036"/><path d="M346.8 375.1 L352.0 388.0 L338.5 384.7Z" fill="#D8A036"/><path d="M335.8 386.4 L333.2 400.1 L323.6 390.0Z" fill="#D8A036"/><path d="M320.4 390.0 L310.8 400.1 L308.2 386.4Z" fill="#D8A036"/><path d="M305.5 384.7 L292.0 388.0 L297.2 375.1Z" fill="#D8A036"/><path d="M295.9 372.2 L282.6 367.7 L294.1 359.6Z" fill="#D8A036"/><path d="M294.6 356.4 L285.8 345.5 L299.8 344.9Z" fill="#D8A036"/><path d="M301.9 342.5 L300.5 328.6 L312.6 335.6Z" fill="#D8A036"/><circle cx="322" cy="362" r="28" fill="url(#gFruit)" stroke="#A8701C" stroke-width="3"/><path d="M322 337 Q307.6 362.0 319.4 386.0" fill="none" stroke="#9A6418" stroke-width="2" opacity="0.5"/><path d="M322 337 Q322.0 362.0 322.0 386.0" fill="none" stroke="#9A6418" stroke-width="2" opacity="0.5"/><path d="M322 337 Q336.4 362.0 324.6 386.0" fill="none" stroke="#9A6418" stroke-width="2" opacity="0.5"/><ellipse cx="313.0" cy="352.5" rx="8.4" ry="6.2" fill="#F1CE72" opacity="0.6"/></g><g><path d="M250.6 386.6 L256.0 375.9 L261.4 386.6Z" fill="#D8A036"/><path d="M264.1 387.4 L274.4 381.3 L273.2 393.3Z" fill="#D8A036"/><path d="M275.0 395.3 L287.0 395.8 L279.5 405.2Z" fill="#D8A036"/><path d="M279.9 407.9 L289.7 414.9 L278.4 418.7Z" fill="#D8A036"/><path d="M277.2 421.2 L281.8 432.3 L270.1 429.4Z" fill="#D8A036"/><path d="M267.8 430.9 L265.6 442.7 L257.4 434.0Z" fill="#D8A036"/><path d="M254.6 434.0 L246.4 442.7 L244.2 430.9Z" fill="#D8A036"/><path d="M241.9 429.4 L230.2 432.3 L234.8 421.2Z" fill="#D8A036"/><path d="M233.6 418.7 L222.3 414.9 L232.1 407.9Z" fill="#D8A036"/><path d="M232.5 405.2 L225.0 395.8 L237.0 395.3Z" fill="#D8A036"/><path d="M238.8 393.3 L237.6 381.3 L247.9 387.4Z" fill="#D8A036"/><circle cx="256" cy="410" r="24" fill="url(#gFruit)" stroke="#A8701C" stroke-width="3"/><path d="M256 389 Q243.6 410.0 253.4 430.0" fill="none" stroke="#9A6418" stroke-width="2" opacity="0.5"/><path d="M256 389 Q256.0 410.0 256.0 430.0" fill="none" stroke="#9A6418" stroke-width="2" opacity="0.5"/><path d="M256 389 Q268.4 410.0 258.6 430.0" fill="none" stroke="#9A6418" stroke-width="2" opacity="0.5"/><ellipse cx="248.3" cy="401.8" rx="7.2" ry="5.3" fill="#F1CE72" opacity="0.6"/></g></svg>