<svg class="idx__qrimg" viewBox="0 0 39 39" shape-rendering="crispEdges" xmlns="http://www.w3.org/2000/svg" role="img" aria-label="QR code"><rect width="39" height="39" fill="#ffffff"/><path d="M3 3h7v1h-7zM16 3h1v1h-1zM19 3h6v1h-6zM26 3h1v1h-1zM29 3h7v1h-7zM3 4h1v1h-1zM9 4h1v1h-1zM12 4h3v1h-3zM16 4h5v1h-5zM23 4h3v1h-3zM27 4h1v1h-1zM29 4h1v1h-1zM35 4h1v1h-1zM3 5h1v1h-1zM5 5h3v1h-3zM9 5h1v1h-1zM11 5h3v1h-3zM15 5h2v1h-2zM19 5h1v1h-1zM21 5h1v1h-1zM23 5h2v1h-2zM29 5h1v1h-1zM31 5h3v1h-3zM35 5h1v1h-1zM3 6h1v1h-1zM5 6h3v1h-3zM9 6h1v1h-1zM11 6h1v1h-1zM13 6h2v1h-2zM17 6h4v1h-4zM25 6h2v1h-2zM29 6h1v1h-1zM31 6h3v1h-3zM35 6h1v1h-1zM3 7h1v1h-1zM5 7h3v1h-3zM9 7h1v1h-1zM11 7h1v1h-1zM13 7h1v1h-1zM15 7h2v1h-2zM18 7h1v1h-1zM21 7h6v1h-6zM29 7h1v1h-1zM31 7h3v1h-3zM35 7h1v1h-1zM3 8h1v1h-1zM9 8h1v1h-1zM11 8h1v1h-1zM13 8h1v1h-1zM15 8h1v1h-1zM18 8h2v1h-2zM23 8h3v1h-3zM27 8h1v1h-1zM29 8h1v1h-1zM35 8h1v1h-1zM3 9h7v1h-7zM11 9h1v1h-1zM13 9h1v1h-1zM15 9h1v1h-1zM17 9h1v1h-1zM19 9h1v1h-1zM21 9h1v1h-1zM23 9h1v1h-1zM25 9h1v1h-1zM27 9h1v1h-1zM29 9h7v1h-7zM11 10h4v1h-4zM17 10h2v1h-2zM23 10h4v1h-4zM3 11h1v1h-1zM5 11h5v1h-5zM13 11h1v1h-1zM16 11h3v1h-3zM20 11h1v1h-1zM25 11h3v1h-3zM29 11h5v1h-5zM3 12h4v1h-4zM12 12h1v1h-1zM17 12h1v1h-1zM19 12h1v1h-1zM21 12h6v1h-6zM29 12h2v1h-2zM32 12h2v1h-2zM35 12h1v1h-1zM5 13h6v1h-6zM12 13h2v1h-2zM15 13h1v1h-1zM18 13h1v1h-1zM20 13h2v1h-2zM23 13h1v1h-1zM27 13h2v1h-2zM31 13h1v1h-1zM33 13h2v1h-2zM5 14h1v1h-1zM7 14h1v1h-1zM13 14h1v1h-1zM17 14h1v1h-1zM19 14h1v1h-1zM22 14h3v1h-3zM26 14h1v1h-1zM31 14h4v1h-4zM3 15h3v1h-3zM8 15h5v1h-5zM14 15h1v1h-1zM20 15h1v1h-1zM25 15h4v1h-4zM30 15h3v1h-3zM34 15h1v1h-1zM3 16h2v1h-2zM11 16h1v1h-1zM14 16h10v1h-10zM26 16h1v1h-1zM28 16h2v1h-2zM33 16h3v1h-3zM3 17h1v1h-1zM9 17h4v1h-4zM16 17h2v1h-2zM23 17h2v1h-2zM28 17h2v1h-2zM31 17h1v1h-1zM34 17h1v1h-1zM3 18h1v1h-1zM6 18h3v1h-3zM12 18h1v1h-1zM14 18h1v1h-1zM16 18h1v1h-1zM19 18h1v1h-1zM21 18h1v1h-1zM24 18h2v1h-2zM27 18h3v1h-3zM31 18h1v1h-1zM33 18h1v1h-1zM3 19h1v1h-1zM6 19h1v1h-1zM8 19h2v1h-2zM11 19h1v1h-1zM13 19h2v1h-2zM16 19h1v1h-1zM20 19h1v1h-1zM22 19h2v1h-2zM25 19h1v1h-1zM27 19h2v1h-2zM30 19h2v1h-2zM35 19h1v1h-1zM4 20h1v1h-1zM6 20h2v1h-2zM11 20h1v1h-1zM13 20h2v1h-2zM17 20h1v1h-1zM21 20h6v1h-6zM28 20h3v1h-3zM32 20h4v1h-4zM4 21h1v1h-1zM8 21h2v1h-2zM11 21h2v1h-2zM14 21h1v1h-1zM16 21h1v1h-1zM18 21h2v1h-2zM23 21h3v1h-3zM28 21h1v1h-1zM30 21h2v1h-2zM33 21h2v1h-2zM6 22h1v1h-1zM8 22h1v1h-1zM10 22h1v1h-1zM14 22h4v1h-4zM19 22h1v1h-1zM22 22h1v1h-1zM24 22h2v1h-2zM27 22h2v1h-2zM30 22h4v1h-4zM3 23h3v1h-3zM7 23h1v1h-1zM9 23h2v1h-2zM12 23h5v1h-5zM18 23h4v1h-4zM25 23h1v1h-1zM27 23h2v1h-2zM30 23h3v1h-3zM35 23h1v1h-1zM3 24h2v1h-2zM7 24h2v1h-2zM10 24h1v1h-1zM12 24h1v1h-1zM16 24h1v1h-1zM18 24h1v1h-1zM21 24h4v1h-4zM26 24h1v1h-1zM28 24h3v1h-3zM32 24h1v1h-1zM35 24h1v1h-1zM3 25h1v1h-1zM8 25h2v1h-2zM12 25h1v1h-1zM14 25h1v1h-1zM16 25h1v1h-1zM18 25h2v1h-2zM23 25h1v1h-1zM25 25h1v1h-1zM31 25h1v1h-1zM34 25h1v1h-1zM3 26h1v1h-1zM6 26h2v1h-2zM10 26h1v1h-1zM12 26h1v1h-1zM15 26h1v1h-1zM18 26h1v1h-1zM22 26h1v1h-1zM24 26h2v1h-2zM27 26h3v1h-3zM31 26h3v1h-3zM3 27h1v1h-1zM5 27h1v1h-1zM8 27h3v1h-3zM12 27h1v1h-1zM14 27h1v1h-1zM17 27h2v1h-2zM20 27h1v1h-1zM23 27h1v1h-1zM25 27h7v1h-7zM35 27h1v1h-1zM11 28h3v1h-3zM16 28h2v1h-2zM19 28h6v1h-6zM27 28h1v1h-1zM31 28h1v1h-1zM33 28h1v1h-1zM35 28h1v1h-1zM3 29h7v1h-7zM13 29h2v1h-2zM16 29h3v1h-3zM20 29h1v1h-1zM23 29h5v1h-5zM29 29h1v1h-1zM31 29h1v1h-1zM33 29h2v1h-2zM3 30h1v1h-1zM9 30h1v1h-1zM11 30h2v1h-2zM16 30h2v1h-2zM19 30h1v1h-1zM22 30h6v1h-6zM31 30h3v1h-3zM3 31h1v1h-1zM5 31h3v1h-3zM9 31h1v1h-1zM11 31h1v1h-1zM13 31h2v1h-2zM21 31h2v1h-2zM25 31h1v1h-1zM27 31h6v1h-6zM34 31h1v1h-1zM3 32h1v1h-1zM5 32h3v1h-3zM9 32h1v1h-1zM11 32h2v1h-2zM14 32h1v1h-1zM17 32h7v1h-7zM25 32h1v1h-1zM27 32h2v1h-2zM31 32h1v1h-1zM34 32h2v1h-2zM3 33h1v1h-1zM5 33h3v1h-3zM9 33h1v1h-1zM11 33h1v1h-1zM13 33h1v1h-1zM16 33h2v1h-2zM20 33h1v1h-1zM23 33h1v1h-1zM25 33h6v1h-6zM32 33h2v1h-2zM3 34h1v1h-1zM9 34h1v1h-1zM12 34h1v1h-1zM19 34h1v1h-1zM22 34h1v1h-1zM24 34h2v1h-2zM31 34h3v1h-3zM3 35h7v1h-7zM11 35h3v1h-3zM15 35h2v1h-2zM20 35h1v1h-1zM25 35h3v1h-3zM29 35h2v1h-2zM34 35h1v1h-1z" fill="#2E4726"/></svg>